<svg width="53" height="54" viewBox="0 0 53 54" fill="none" xmlns="http://www.w3.org/2000/svg">
<path d="M6.625 13.7498L24.2917 24.7915L41.9583 13.7498V20.3748H46.375V9.33317C46.375 6.904 44.3875 4.9165 41.9583 4.9165H6.625C4.19583 4.9165 2.23042 6.904 2.23042 9.33317L2.20833 35.8332C2.20833 38.2623 4.19583 40.2498 6.625 40.2498H28.7083V35.8332H6.625V13.7498ZM41.9583 9.33317L24.2917 20.3748L6.625 9.33317H41.9583Z" fill="white"/>
<path d="M46.375 31.4165V40.2498C46.375 42.679 44.3875 44.6665 41.9583 44.6665C39.5292 44.6665 37.5417 42.679 37.5417 40.2498V30.3123C37.5417 29.694 38.0275 29.2082 38.6458 29.2082C39.2642 29.2082 39.75 29.694 39.75 30.3123V40.2498H44.1667V30.3123C44.1667 28.8481 43.585 27.4439 42.5497 26.4085C41.5143 25.3732 40.11 24.7915 38.6458 24.7915C37.1816 24.7915 35.7774 25.3732 34.742 26.4085C33.7067 27.4439 33.125 28.8481 33.125 30.3123V40.2498C33.125 45.1303 37.0779 49.0832 41.9583 49.0832C46.8387 49.0832 50.7917 45.1303 50.7917 40.2498V31.4165H46.375Z" fill="white"/>
</svg>
