<svg width="54" height="54" viewBox="0 0 54 54" fill="none" xmlns="http://www.w3.org/2000/svg">
<g clip-path="url(#clip0_49_218)">
<path d="M26.8165 15.0958C19.2923 15.0958 13.2234 20.4061 13.2234 26.9897C13.2234 33.5733 19.2923 38.8836 26.8165 38.8836C34.3406 38.8836 40.4095 33.5733 40.4095 26.9897C40.4095 20.4061 34.3406 15.0958 26.8165 15.0958ZM26.8165 34.7223C21.9542 34.7223 17.9792 31.2545 17.9792 26.9897C17.9792 22.7249 21.9423 19.2571 26.8165 19.2571C31.6906 19.2571 35.6537 22.7249 35.6537 26.9897C35.6537 31.2545 31.6787 34.7223 26.8165 34.7223V34.7223ZM44.1361 14.6092C44.1361 16.1516 42.7165 17.3834 40.9656 17.3834C39.2028 17.3834 37.795 16.1413 37.795 14.6092C37.795 13.0772 39.2147 11.835 40.9656 11.835C42.7165 11.835 44.1361 13.0772 44.1361 14.6092ZM53.139 17.4249C52.9379 13.7086 51.9678 10.4168 48.8564 7.70474C45.7569 4.99263 41.9948 4.1438 37.7477 3.95747C33.3705 3.74009 20.2506 3.74009 15.8734 3.95747C11.6381 4.13345 7.87605 4.98228 4.76466 7.69438C1.65328 10.4065 0.69502 13.6983 0.482074 17.4145C0.233636 21.2446 0.233636 32.7245 0.482074 36.5545C0.68319 40.2707 1.65328 43.5625 4.76466 46.2747C7.87605 48.9868 11.6263 49.8356 15.8734 50.0219C20.2506 50.2393 33.3705 50.2393 37.7477 50.0219C41.9948 49.8459 45.7569 48.9971 48.8564 46.2747C51.956 43.5625 52.9261 40.2707 53.139 36.5545C53.3874 32.7245 53.3874 21.2549 53.139 17.4249V17.4249ZM47.4841 40.6641C46.5613 42.693 44.7749 44.2561 42.4444 45.0739C38.9544 46.285 30.6731 46.0055 26.8165 46.0055C22.9598 46.0055 14.6667 46.2747 11.1885 45.0739C8.8698 44.2665 7.08341 42.7034 6.14882 40.6641C4.76466 37.6104 5.08408 30.3643 5.08408 26.9897C5.08408 23.6151 4.77649 16.3586 6.14882 13.3153C7.07158 11.2864 8.85797 9.72329 11.1885 8.90552C14.6785 7.69438 22.9598 7.97388 26.8165 7.97388C30.6731 7.97388 38.9662 7.70474 42.4444 8.90552C44.7631 9.71294 46.5495 11.276 47.4841 13.3153C48.8682 16.369 48.5488 23.6151 48.5488 26.9897C48.5488 30.3643 48.8682 37.6208 47.4841 40.6641Z" fill="white"/>
</g>
<defs>
<clipPath id="clip0_49_218">
<rect width="53" height="53" fill="white" transform="translate(0.304962 0.5)"/>
</clipPath>
</defs>
</svg>
