<svg width="52" height="52" viewBox="0 0 52 52" fill="none" xmlns="http://www.w3.org/2000/svg">
<path fill-rule="evenodd" clip-rule="evenodd" d="M43.9042 7.7957C41.5479 5.42387 38.7444 3.54319 35.656 2.26262C32.5676 0.982045 29.2559 0.327034 25.9126 0.335531C11.8932 0.335531 0.480557 11.7454 0.47489 25.7704C0.47489 30.2527 1.64506 34.6274 3.86922 38.4864L0.26239 51.6642L13.7462 48.1254C17.476 50.1557 21.6546 51.2203 25.9012 51.2222H25.9126C39.9291 51.2222 51.3417 39.8124 51.3474 25.7874C51.357 22.4454 50.7042 19.1347 49.4266 16.0465C48.149 12.9584 46.2721 10.1541 43.9042 7.7957ZM25.9126 46.9297H25.9041C22.1174 46.9301 18.4003 45.9113 15.1431 43.9802L14.3724 43.5212L6.37106 45.6207L8.50456 37.8205L8.00306 37.0215C5.88596 33.6511 4.76522 29.7506 4.77022 25.7704C4.77589 14.114 14.2591 4.63086 25.9211 4.63086C28.6984 4.62469 31.4495 5.16943 34.0149 6.23354C36.5804 7.29766 38.9093 8.86002 40.8669 10.8302C42.835 12.791 44.3949 15.1224 45.4566 17.6897C46.5182 20.257 47.0605 23.0092 47.0521 25.7874C47.0464 37.4437 37.5632 46.9297 25.9126 46.9297ZM37.5094 31.0942C36.8719 30.774 33.7496 29.2384 33.1659 29.0259C32.5851 28.8134 32.1629 28.7085 31.7379 29.3432C31.3129 29.9779 30.0946 31.4087 29.7234 31.8337C29.3522 32.2587 28.9811 32.3097 28.3464 31.9924C27.7117 31.675 25.6632 31.0035 23.2351 28.8389C21.3452 27.153 20.0702 25.0734 19.6991 24.4359C19.3279 23.7984 19.6594 23.4555 19.9796 23.1382C20.2657 22.8549 20.6142 22.3959 20.9316 22.0247C21.2489 21.6535 21.3537 21.39 21.5662 20.965C21.7787 20.54 21.6739 20.1689 21.5124 19.8515C21.3537 19.5314 20.0816 16.4034 19.5517 15.1312C19.0389 13.8987 18.5147 14.063 18.1237 14.046C17.7188 14.0295 17.3135 14.0219 16.9082 14.0234C16.5859 14.0316 16.2688 14.1063 15.9768 14.2428C15.6847 14.3793 15.4241 14.5747 15.2111 14.8167C14.6274 15.4542 12.9869 16.9899 12.9869 20.1179C12.9869 23.2459 15.2649 26.269 15.5822 26.694C15.8996 27.119 20.0646 33.5365 26.4396 36.2905C27.9582 36.945 29.1426 37.336 30.0634 37.6307C31.5849 38.1152 32.9704 38.0444 34.0669 37.8829C35.2881 37.7015 37.8267 36.3472 38.3566 34.8625C38.8864 33.3779 38.8864 32.1057 38.7277 31.8394C38.5691 31.573 38.1412 31.4115 37.5094 31.0942Z" fill="white"/>
</svg>
